<?xml version="1.0" standalone="no"?>
<!DOCTYPE svg PUBLIC "-//W3C//DTD SVG 20010904//EN"
 "http://www.w3.org/TR/2001/REC-SVG-20010904/DTD/svg10.dtd">
<svg version="1.0" xmlns="http://www.w3.org/2000/svg"
 width="149.000000pt" height="150.000000pt" viewBox="0 0 149.000000 150.000000"
 preserveAspectRatio="xMidYMid meet">
<metadata>
Created by potrace 1.14, written by Peter Selinger 2001-2017
</metadata>
<g transform="translate(0.000000,150.000000) scale(0.100000,-0.100000)"
fill="#000000" stroke="none">
<path d="M564 1436 c-29 -29 -34 -41 -34 -81 0 -40 5 -52 34 -81 26 -26 42
-34 70 -34 49 0 92 23 111 60 42 82 -14 170 -111 170 -28 0 -44 -8 -70 -34z"/>
<path d="M800 1378 c0 -8 28 -19 84 -29 46 -9 114 -32 152 -50 83 -41 195
-143 236 -216 19 -34 34 -50 43 -46 18 6 10 23 -50 108 -88 125 -252 220 -412
240 -41 5 -53 4 -53 -7z"/>
<path d="M424 1276 c-109 -74 -199 -205 -234 -341 -24 -93 -24 -95 -6 -95 8 0
18 23 26 61 28 131 114 265 221 344 33 24 60 47 60 52 1 17 -19 11 -67 -21z"/>
<path d="M645 1108 c-47 -16 -75 -36 -126 -87 -85 -85 -112 -150 -113 -268 0
-74 4 -88 37 -157 24 -47 53 -88 80 -111 47 -41 113 -78 129 -73 5 2 29 55 53
117 l44 113 -40 37 c-32 32 -39 44 -39 77 0 134 191 151 216 19 7 -39 -7 -71
-49 -106 l-30 -26 44 -117 c25 -66 50 -116 57 -116 50 0 162 101 205 185 29
55 31 68 32 160 0 87 -3 107 -26 155 -39 82 -99 144 -177 182 -57 29 -78 33
-152 35 -65 2 -99 -3 -145 -19z"/>
<path d="M1330 993 c-78 -30 -90 -142 -19 -178 71 -37 149 10 149 89 0 53 -81
108 -130 89z"/>
<path d="M102 770 c-34 -21 -72 -87 -72 -125 0 -38 38 -104 72 -125 50 -30
128 -28 168 6 81 68 81 170 0 238 -40 34 -118 36 -168 6z"/>
<path d="M260 465 c0 -19 78 -111 129 -152 106 -87 277 -148 393 -141 75 5 57
22 -30 30 -180 15 -307 80 -423 214 -38 45 -69 66 -69 49z"/>
<path d="M1001 378 c-76 -26 -130 -118 -116 -197 16 -88 88 -146 182 -145 66
0 122 36 152 96 27 56 27 100 0 156 -38 77 -135 117 -218 90z"/>
</g>
</svg>
