<?xml version="1.0" standalone="no"?><!-- Generator: Gravit.io --><svg xmlns="http://www.w3.org/2000/svg" xmlns:xlink="http://www.w3.org/1999/xlink" style="isolation:isolate" viewBox="431.147 510.758 2916.052 1193.485" width="2916.052" height="1193.485"><path d=" M 584.684 1081.773 C 584.684 826.236 792.147 618.773 1047.684 618.773 C 1303.221 618.773 1510.684 826.236 1510.684 1081.773 C 1510.684 1337.31 1303.221 1544.773 1047.684 1544.773 C 792.147 1544.773 584.684 1337.31 584.684 1081.773 Z " fill="none" vector-effect="non-scaling-stroke" stroke-width="23.307" stroke="rgb(0,0,0)" stroke-linejoin="miter" stroke-linecap="square" stroke-miterlimit="3"/><path d=" M 1082.489 1190.135 C 1126.188 1173.358 1151.702 1127.797 1143.171 1081.773 C 1134.64 1035.748 1094.492 1002.358 1047.684 1002.358 C 1000.875 1002.358 960.727 1035.748 952.196 1081.773 C 943.666 1127.797 969.179 1173.358 1012.878 1190.135 L 947.462 1360.589 C 821.603 1312.281 748.113 1181.065 772.678 1048.51 C 797.244 915.955 912.872 819.786 1047.684 819.786 C 1182.496 819.786 1298.124 915.955 1322.689 1048.51 C 1347.254 1181.065 1273.765 1312.281 1147.905 1360.589 L 1082.489 1190.135 Z " fill="none" vector-effect="non-scaling-stroke" stroke-width="23.307" stroke="rgb(0,0,0)" stroke-linejoin="round" stroke-linecap="butt" stroke-miterlimit="4"/><g transform="matrix(1,0,0,1,1870.199,647.06)"><text transform="matrix(1,0,0,1,0,641.309)" style="font-family:&quot;Open Sans&quot;;font-weight:300;font-size:600px;font-style:normal;fill:#000000;stroke:none;">SDCP</text></g><path d=" M 1399.769 990.786 C 1399.769 935.043 1445.026 889.786 1500.769 889.786 C 1556.513 889.786 1601.769 935.043 1601.769 990.786 C 1601.769 1046.53 1556.513 1091.786 1500.769 1091.786 C 1445.026 1091.786 1399.769 1046.53 1399.769 990.786 Z " fill="rgb(255,255,255)" vector-effect="non-scaling-stroke" stroke-width="23.307" stroke="rgb(255,255,255)" stroke-linejoin="miter" stroke-linecap="square" stroke-miterlimit="3"/><path d=" M 830.644 634.786 C 830.644 572.765 880.998 522.411 943.019 522.411 C 1005.041 522.411 1055.394 572.765 1055.394 634.786 C 1055.394 696.808 1005.041 747.161 943.019 747.161 C 880.998 747.161 830.644 696.808 830.644 634.786 Z " fill="rgb(255,255,255)" vector-effect="non-scaling-stroke" stroke-width="23.307" stroke="rgb(255,255,255)" stroke-linejoin="miter" stroke-linecap="square" stroke-miterlimit="3"/><path d=" M 442.801 1187.903 C 442.801 1109.595 506.376 1046.02 584.684 1046.02 C 662.991 1046.02 726.567 1109.595 726.567 1187.903 C 726.567 1266.21 662.991 1329.786 584.684 1329.786 C 506.376 1329.786 442.801 1266.21 442.801 1187.903 Z " fill="rgb(255,255,255)" vector-effect="non-scaling-stroke" stroke-width="23.307" stroke="rgb(255,255,255)" stroke-linejoin="miter" stroke-linecap="square" stroke-miterlimit="3"/><path d=" M 1103.269 1526.589 C 1103.269 1434.971 1177.652 1360.589 1269.269 1360.589 C 1360.887 1360.589 1435.269 1434.971 1435.269 1526.589 C 1435.269 1618.207 1360.887 1692.589 1269.269 1692.589 C 1177.652 1692.589 1103.269 1618.207 1103.269 1526.589 Z " fill="rgb(255,255,255)" vector-effect="non-scaling-stroke" stroke-width="23.307" stroke="rgb(255,255,255)" stroke-linejoin="miter" stroke-linecap="square" stroke-miterlimit="3"/><path d=" M 1435.269 990.786 C 1435.269 954.636 1464.619 925.286 1500.769 925.286 C 1536.92 925.286 1566.269 954.636 1566.269 990.786 C 1566.269 1026.937 1536.92 1056.286 1500.769 1056.286 C 1464.619 1056.286 1435.269 1026.937 1435.269 990.786 Z " fill="rgb(255,255,255)" vector-effect="non-scaling-stroke" stroke-width="23.307" stroke="rgb(0,0,0)" stroke-linejoin="miter" stroke-linecap="square" stroke-miterlimit="3"/><path d=" M 864.269 634.786 C 864.269 591.323 899.556 556.036 943.019 556.036 C 986.483 556.036 1021.769 591.323 1021.769 634.786 C 1021.769 678.25 986.483 713.536 943.019 713.536 C 899.556 713.536 864.269 678.25 864.269 634.786 Z " fill="rgb(255,255,255)" vector-effect="non-scaling-stroke" stroke-width="23.307" stroke="rgb(0,0,0)" stroke-linejoin="miter" stroke-linecap="square" stroke-miterlimit="3"/><path d=" M 479.839 1187.903 C 479.839 1130.037 526.818 1083.058 584.684 1083.058 C 642.549 1083.058 689.529 1130.037 689.529 1187.903 C 689.529 1245.768 642.549 1292.748 584.684 1292.748 C 526.818 1292.748 479.839 1245.768 479.839 1187.903 Z " fill="rgb(255,255,255)" vector-effect="non-scaling-stroke" stroke-width="23.307" stroke="rgb(0,0,0)" stroke-linejoin="miter" stroke-linecap="square" stroke-miterlimit="3"/><rect x="1333.978" y="1079.128" width="212" height="358.691" transform="matrix(0.958,0.286,-0.286,0.958,420.608,-359.605)" fill="rgb(255,255,255)"/><path d=" M 1140.308 1526.589 C 1140.308 1456.506 1197.206 1399.608 1267.289 1399.608 C 1337.371 1399.608 1394.269 1456.506 1394.269 1526.589 C 1394.269 1596.671 1337.371 1653.57 1267.289 1653.57 C 1197.206 1653.57 1140.308 1596.671 1140.308 1526.589 Z " fill="rgb(255,255,255)" vector-effect="non-scaling-stroke" stroke-width="23.307" stroke="rgb(0,0,0)" stroke-linejoin="miter" stroke-linecap="square" stroke-miterlimit="3"/><g transform="matrix(1,0,0,1,1327.399,970.554)"><text transform="matrix(1,0,0,1,0,320.654)" style="font-family:&quot;Open Sans&quot;;font-weight:400;font-size:300px;font-style:normal;fill:#000000;stroke:none;">pen</text></g></svg>